<svg width="86" height="86" viewBox="0 0 86 86" fill="none" xmlns="http://www.w3.org/2000/svg">
<g id="Group 1">
<rect id="Rectangle 2" width="86" height="86" rx="8" fill="#FCFCFF"/>
<path id="Union" fill-rule="evenodd" clip-rule="evenodd" d="M26.6364 43C26.6364 33.9626 33.9626 26.6364 43 26.6364C52.0374 26.6364 59.3636 33.9626 59.3636 43C59.3636 52.0374 52.0374 59.3636 43 59.3636C33.9626 59.3636 26.6364 52.0374 26.6364 43ZM43 23C31.9543 23 23 31.9543 23 43C23 54.0457 31.9543 63 43 63C54.0457 63 63 54.0457 63 43C63 31.9543 54.0457 23 43 23ZM44.8182 32.0909C44.8182 31.0868 44.0042 30.2727 43 30.2727C41.9958 30.2727 41.1818 31.0868 41.1818 32.0909V43C41.1818 43.6887 41.5709 44.3182 42.1869 44.6262L49.4596 48.2626C50.3578 48.7117 51.4499 48.3476 51.899 47.4495C52.348 46.5513 51.984 45.4592 51.0858 45.0101L44.8182 41.8763V32.0909Z" fill="#FD4455"/>
</g>
</svg>
