<svg width="86" height="86" viewBox="0 0 86 86" fill="none" xmlns="http://www.w3.org/2000/svg">
<g id="Group 1">
<rect id="Rectangle 2" width="86" height="86" rx="8" fill="#FCFCFF"/>
<path id="Union" fill-rule="evenodd" clip-rule="evenodd" d="M33 34.3333C33 31.5719 35.2386 29.3333 38 29.3333C40.7614 29.3333 43 31.5719 43 34.3333C43 37.0948 40.7614 39.3333 38 39.3333C35.2386 39.3333 33 37.0948 33 34.3333ZM38 26C33.3976 26 29.6667 29.731 29.6667 34.3333C29.6667 38.9357 33.3976 42.6667 38 42.6667C42.6024 42.6667 46.3333 38.9357 46.3333 34.3333C46.3333 29.731 42.6024 26 38 26ZM31.3333 46C29.1232 46 27.0036 46.878 25.4408 48.4408C23.878 50.0036 23 52.1232 23 54.3333V57.6667C23 58.5871 23.7462 59.3333 24.6667 59.3333C25.5871 59.3333 26.3333 58.5871 26.3333 57.6667V54.3333C26.3333 53.0073 26.8601 51.7355 27.7978 50.7978C28.7355 49.8601 30.0073 49.3333 31.3333 49.3333H44.6667C45.9928 49.3333 47.2645 49.8601 48.2022 50.7978C49.1399 51.7355 49.6667 53.0072 49.6667 54.3333V57.6667C49.6667 58.5871 50.4129 59.3333 51.3333 59.3333C52.2538 59.3333 53 58.5871 53 57.6667V54.3333C53 52.1232 52.122 50.0036 50.5592 48.4408C48.9964 46.878 46.8768 46 44.6667 46H31.3333ZM54.7196 47.4669C54.9497 46.5756 55.8588 46.0397 56.75 46.2698C58.5378 46.7314 60.1216 47.7737 61.2528 49.233C62.3841 50.6922 62.9986 52.4859 63 54.3323V57.6669C63 58.5874 62.2538 59.3335 61.3333 59.3335C60.4129 59.3335 59.6667 58.5874 59.6667 57.6669V54.3348C59.6657 53.2271 59.297 52.1506 58.6184 51.2752C57.9396 50.3996 56.9893 49.7742 55.9167 49.4973C55.0254 49.2672 54.4895 48.3581 54.7196 47.4669ZM50.0801 26.269C49.1884 26.0406 48.2804 26.5784 48.0521 27.4701C47.8238 28.3619 48.3616 29.2698 49.2533 29.4981C50.3288 29.7735 51.2821 30.399 51.9628 31.276C52.6436 32.153 53.0131 33.2317 53.0131 34.3419C53.0131 35.4521 52.6436 36.5307 51.9628 37.4077C51.2821 38.2847 50.3288 38.9102 49.2533 39.1856C48.3616 39.4139 47.8238 40.3219 48.0521 41.2136C48.2804 42.1053 49.1884 42.6431 50.0801 42.4148C51.8726 41.9558 53.4614 40.9133 54.596 39.4516C55.7306 37.99 56.3464 36.1922 56.3464 34.3419C56.3464 32.4915 55.7306 30.6938 54.596 29.2321C53.4614 27.7704 51.8726 26.7279 50.0801 26.269Z" fill="#335DFF"/>
</g>
</svg>
